<?xml version="1.0" encoding="iso-8859-1"?>
<!-- Generator: Adobe Illustrator 19.0.0, SVG Export Plug-In . SVG Version: 6.00 Build 0)  -->
<svg version="1.1" id="Capa_1" xmlns="http://www.w3.org/2000/svg" xmlns:xlink="http://www.w3.org/1999/xlink" x="0px" y="0px"
	 viewBox="0 0 480 480" style="enable-background:new 0 0 480 480;" xml:space="preserve">
<path style="fill:#D1E3EE;" d="M56,343.976H24c-8.837,0-16-7.163-16-16s7.163-16,16-16h32l0,0V343.976L56,343.976z"/>
<path style="fill:#2276BB;" d="M56,159.976h264l32,88h96v96H40v-96h16V159.976z"/>
<path style="fill:#D3D0C7;" d="M232,247.976H56v-144h176V247.976z"/>
<g>
	<circle style="fill:#394D5D;" cx="120" cy="343.976" r="32"/>
	<circle style="fill:#394D5D;" cx="368" cy="343.976" r="32"/>
</g>
<path style="fill:#12BBC3;" d="M312,247.976h-48v-56h32L312,247.976z"/>
<path style="fill:#FFD884;" d="M416,271.976h32v16h-32V271.976z"/>
<path style="fill:#D1E3EE;" d="M432,311.976h24c8.837,0,16,7.163,16,16s-7.163,16-16,16h-24l0,0V311.976L432,311.976z"/>
<path style="fill:#FFD884;" d="M56,167.976h48v-64h16v64h48v-64h16v64h48v16h-48v64h-16v-64h-48v64h-16v-64H56V167.976z"/>
<path d="M318.4,252.776c1.511-2.005,1.994-4.602,1.304-7.016l-16-56c-0.989-3.431-4.133-5.792-7.704-5.784h-32c-4.418,0-8,3.582-8,8
	v56c0,4.418,3.582,8,8,8h48C314.518,255.976,316.889,254.79,318.4,252.776L318.4,252.776z M301.392,239.976H272v-40h17.968
	L301.392,239.976z"/>
<path d="M0,327.976c0,13.255,10.745,24,24,24h56.8c4.396,21.65,25.51,35.636,47.16,31.24c15.741-3.196,28.044-15.499,31.24-31.24
	h169.6c4.396,21.65,25.51,35.636,47.16,31.24c15.741-3.196,28.044-15.499,31.24-31.24H456c13.255,0,24-10.745,24-24
	s-10.745-24-24-24v-56c0-4.418-3.582-8-8-8h-90.4l-30.08-82.736c-1.151-3.161-4.156-5.265-7.52-5.264h-80v-48c0-4.418-3.582-8-8-8
	H56c-4.418,0-8,3.582-8,8v136h-8c-4.418,0-8,3.582-8,8v56h-8C10.745,303.976,0,314.721,0,327.976L0,327.976z M224,239.976h-40v-56
	h40V239.976z M168,239.976h-48v-56h48V239.976z M120,167.976v-56h48v56H120z M104,239.976H64v-56h40V239.976z M64,111.976h40v56H64
	V111.976z M224,159.976v8h-40v-56h40V159.976z M440,319.976h16c4.418,0,8,3.582,8,8s-3.582,8-8,8h-16V319.976z M344,343.976
	c0-13.255,10.745-24,24-24s24,10.745,24,24s-10.745,24-24,24S344,357.231,344,343.976z M328.8,335.976H240v-168h74.4l30.08,82.736
	c1.151,3.161,4.156,5.265,7.52,5.264h88v16h-24v16h24v16h-8c-4.418,0-8,3.582-8,8v24h-16.8c-4.396-21.65-25.51-35.636-47.16-31.24
	C344.299,307.932,331.996,320.235,328.8,335.976z M96,343.976c0-13.255,10.745-24,24-24s24,10.745,24,24s-10.745,24-24,24
	S96,357.231,96,343.976z M80.8,335.976H48v-80h176v80h-64.8c-4.396-21.65-25.51-35.636-47.16-31.24
	C96.299,307.932,83.996,320.235,80.8,335.976z M16,327.976c0-4.418,3.582-8,8-8h8v16h-8C19.582,335.976,16,332.394,16,327.976z"/>
<g>
</g>
<g>
</g>
<g>
</g>
<g>
</g>
<g>
</g>
<g>
</g>
<g>
</g>
<g>
</g>
<g>
</g>
<g>
</g>
<g>
</g>
<g>
</g>
<g>
</g>
<g>
</g>
<g>
</g>
</svg>
